<svg width="54" height="54" viewBox="0 0 54 54" fill="none" xmlns="http://www.w3.org/2000/svg">
<g filter="url(#filter0_d_11601_3238)">
<rect x="7" y="3" width="40" height="40" rx="10" fill="white"/>
</g>
<path fill-rule="evenodd" clip-rule="evenodd" d="M23.4596 19.25C23.4596 17.294 25.0453 15.7083 27.0013 15.7083C28.9573 15.7083 30.543 17.294 30.543 19.25C30.543 21.206 28.9573 22.7917 27.0013 22.7917C25.0453 22.7917 23.4596 21.206 23.4596 19.25ZM27.0013 16.9583C25.7357 16.9583 24.7096 17.9843 24.7096 19.25C24.7096 20.5157 25.7357 21.5417 27.0013 21.5417C28.267 21.5417 29.293 20.5157 29.293 19.25C29.293 17.9843 28.267 16.9583 27.0013 16.9583Z" fill="black"/>
<path fill-rule="evenodd" clip-rule="evenodd" d="M23.668 25.2917C22.6324 25.2917 21.793 26.1311 21.793 27.1667V28.1569C21.793 28.172 21.8039 28.1848 21.8188 28.1873C25.2511 28.7476 28.7515 28.7476 32.1838 28.1873C32.1987 28.1848 32.2096 28.172 32.2096 28.1569V27.1667C32.2096 26.1311 31.3702 25.2917 30.3346 25.2917H30.0506C30.0286 25.2917 30.0068 25.2951 29.9859 25.302L29.2646 25.5375C27.794 26.0177 26.2086 26.0177 24.738 25.5375L24.0167 25.302C23.9958 25.2951 23.974 25.2917 23.952 25.2917H23.668ZM20.543 27.1667C20.543 25.4408 21.9421 24.0417 23.668 24.0417H23.952C24.1058 24.0417 24.2585 24.066 24.4047 24.1137L25.126 24.3492C26.3445 24.7471 27.6581 24.7471 28.8766 24.3492L29.5979 24.1137C29.7441 24.066 29.8968 24.0417 30.0506 24.0417H30.3346C32.0605 24.0417 33.4596 25.4408 33.4596 27.1667V28.1569C33.4596 28.7846 33.0047 29.3198 32.3852 29.4209C28.8196 30.0031 25.1831 30.0031 21.6174 29.4209C20.9979 29.3198 20.543 28.7846 20.543 28.1569V27.1667Z" fill="black"/>
<defs>
<filter id="filter0_d_11601_3238" x="0" y="0" width="54" height="54" filterUnits="userSpaceOnUse" color-interpolation-filters="sRGB">
<feFlood flood-opacity="0" result="BackgroundImageFix"/>
<feColorMatrix in="SourceAlpha" type="matrix" values="0 0 0 0 0 0 0 0 0 0 0 0 0 0 0 0 0 0 127 0" result="hardAlpha"/>
<feOffset dy="4"/>
<feGaussianBlur stdDeviation="3.5"/>
<feComposite in2="hardAlpha" operator="out"/>
<feColorMatrix type="matrix" values="0 0 0 0 0 0 0 0 0 0 0 0 0 0 0 0 0 0 0.15 0"/>
<feBlend mode="normal" in2="BackgroundImageFix" result="effect1_dropShadow_11601_3238"/>
<feBlend mode="normal" in="SourceGraphic" in2="effect1_dropShadow_11601_3238" result="shape"/>
</filter>
</defs>
</svg>
